<?xml version="1.0" encoding="iso-8859-1"?>
<!-- Generator: Adobe Illustrator 19.0.0, SVG Export Plug-In . SVG Version: 6.00 Build 0)  -->
<svg version="1.1" id="Capa_1" xmlns="http://www.w3.org/2000/svg" xmlns:xlink="http://www.w3.org/1999/xlink" x="0px" y="0px"
	 viewBox="0 0 477.867 477.867" style="enable-background:new 0 0 477.867 477.867;" xml:space="preserve">
<g>
	<g>
		<path d="M323.436,318.597c-4.213-39.794-35.624-71.254-75.411-75.53h0c-3.018-0.349-6.054-0.516-9.092-0.5
			c-2.993-0.018-5.985,0.145-8.958,0.488c-46.663,4.941-80.485,46.774-75.544,93.436c4.213,39.794,35.624,71.254,75.411,75.53
			c5.997,0.675,12.052,0.679,18.05,0.012C294.554,407.093,328.377,365.26,323.436,318.597z M304.258,315.454l-24.45,25.1
			l5.758,35.346c1.06,6.373-3.248,12.399-9.621,13.458c-2.614,0.435-5.298-0.031-7.612-1.321l-29.4-16.283l-29.4,16.283
			c-5.661,3.132-12.789,1.083-15.921-4.578c-1.272-2.299-1.734-4.958-1.313-7.551l5.758-35.354l-24.45-25.096
			c-4.514-4.644-4.409-12.067,0.235-16.581c1.748-1.699,3.981-2.811,6.39-3.182l33.275-5.1l14.825-31.633
			c2.738-5.855,9.703-8.382,15.558-5.644c2.489,1.164,4.489,3.166,5.65,5.657l14.817,31.621l33.275,5.1
			c4.343,0.653,7.95,3.69,9.333,7.858C308.378,307.714,307.331,312.314,304.258,315.454z"/>
	</g>
</g>
<g>
	<g>
		<circle cx="51.2" cy="335.721" r="17.067"/>
	</g>
</g>
<g>
	<g>
		<path d="M265.675,330.604l19.108-19.613l-25.833-3.958c-3.871-0.582-7.191-3.067-8.841-6.617l-11.175-23.858l-11.183,23.867
			c-1.652,3.551-4.977,6.035-8.85,6.612l-25.817,3.954l19.083,19.587c2.587,2.68,3.758,6.424,3.158,10.1l-4.408,27.079
			l22.342-12.371c3.533-1.972,7.836-1.969,11.366,0.009l22.325,12.362l-4.417-27.113
			C261.946,336.991,263.109,333.272,265.675,330.604z"/>
	</g>
</g>
<g>
	<g>
		<path d="M256.217,157.754c-5.966-0.738-11.999-0.746-17.967-0.025c-23.245,2.4-44.459,14.32-58.599,32.925h48.897l7.943-17.008
			c2.733-5.872,9.71-8.417,15.583-5.684c2.475,1.152,4.47,3.131,5.642,5.596l7.985,17.096h48.862
			C300.48,172.114,279.369,160.21,256.217,157.754z"/>
	</g>
</g>
<g>
	<g>
		<path d="M154.658,111.371c-6.667-6.667-17.475-6.667-24.142,0c-6.667,6.667-6.667,17.475,0,24.142c0,0,0,0,0,0
			c6.672,6.653,17.469,6.653,24.142,0C161.325,128.846,161.325,118.037,154.658,111.371z"/>
	</g>
</g>
<g>
	<g>
		<path d="M232.675,32.454c-21.124,15.087-49.631,14.583-70.208-1.242L62.417,131.258c12.935,17.04,15.765,39.698,7.417,59.396
			h89.36c16.25-27.977,44.886-46.51,77.065-49.875c7.287-0.854,14.649-0.846,21.933,0.025c32.089,3.446,60.623,21.954,76.853,49.85
			H390.8L232.675,32.454z M166.702,147.579c-13.33,13.324-34.937,13.32-48.261-0.009c-6.398-6.4-9.991-15.079-9.991-24.128
			c0.005-9.051,3.602-17.731,10-24.133c13.33-13.324,34.937-13.32,48.261,0.009C180.036,112.647,180.032,134.254,166.702,147.579z"
			/>
	</g>
</g>
<g>
	<g>
		<path d="M427.317,207.721H50.55C46.26,233.319,25.738,253.103,0,256.454v141.462c25.739,3.353,46.26,23.138,50.55,48.738h376.758
			c0.158-1.042,0.35-2.083,0.567-3.125c4.937-22.18,22.227-39.521,44.392-44.525c1.85-0.442,3.717-0.797,5.6-1.067V256.454
			C452.129,253.103,431.607,233.319,427.317,207.721z M369.408,218.729c3.398-3.219,8.719-3.219,12.117,0
			c3.3,3.365,3.3,8.752,0,12.117l0,0.001c-1.637,1.556-3.8,2.44-6.059,2.475c-1.115-0.014-2.216-0.246-3.242-0.683
			c-1.044-0.413-2-1.021-2.817-1.792C366.108,227.481,366.108,222.094,369.408,218.729z M381.525,299.113
			c-1.637,1.556-3.8,2.44-6.059,2.475c-1.115-0.014-2.216-0.246-3.242-0.683c-1.044-0.413-2-1.021-2.817-1.792
			c-3.3-3.365-3.3-8.752,0-12.117c3.398-3.219,8.719-3.219,12.117,0C384.825,290.36,384.825,295.747,381.525,299.113
			L381.525,299.113z M51.2,369.854c-18.851,0-34.133-15.282-34.133-34.133s15.282-34.133,34.133-34.133s34.133,15.282,34.133,34.133
			C85.313,354.564,70.043,369.834,51.2,369.854z M340.382,338.524c-5.165,47.708-42.876,85.369-90.59,90.471h0
			c-3.605,0.412-7.23,0.609-10.858,0.592c-3.673,0.016-7.343-0.186-10.992-0.604c-56.023-6.065-96.522-56.397-90.457-112.42
			c5.165-47.708,42.876-85.369,90.59-90.471c7.262-0.792,14.589-0.787,21.85,0.012C305.948,232.169,346.447,282.501,340.382,338.524
			z M381.525,435.646L381.525,435.646c-1.637,1.557-3.8,2.44-6.059,2.475c-1.115-0.014-2.216-0.246-3.242-0.683
			c-1.044-0.413-2-1.021-2.817-1.792c-3.3-3.365-3.3-8.752,0-12.117c0.815-0.773,1.772-1.383,2.817-1.796
			c3.179-1.329,6.845-0.621,9.3,1.796C384.825,426.894,384.825,432.281,381.525,435.646z M383.317,398.695L383.317,398.695
			c-0.413,1.045-1.021,2.001-1.792,2.817c-3.365,3.3-8.752,3.3-12.117,0c-0.771-0.816-1.379-1.772-1.792-2.817
			c-0.911-2.067-0.911-4.421,0-6.487c0.433-1.033,1.039-1.984,1.792-2.813c0.815-0.773,1.772-1.383,2.817-1.796
			c3.179-1.329,6.844-0.621,9.3,1.795c0.753,0.829,1.359,1.78,1.792,2.813C384.228,394.275,384.228,396.629,383.317,398.695z
			 M369.408,355.262c0.815-0.773,1.772-1.383,2.817-1.796c3.179-1.329,6.845-0.621,9.3,1.796c3.3,3.365,3.3,8.752,0,12.117v0.001
			c-1.637,1.556-3.8,2.44-6.059,2.475c-1.115-0.014-2.216-0.246-3.242-0.683c-1.044-0.413-2-1.021-2.817-1.792
			C366.108,364.014,366.108,358.627,369.408,355.262z M383.317,330.429L383.317,330.429c-0.413,1.045-1.021,2.001-1.792,2.817
			c-3.365,3.3-8.752,3.3-12.117,0c-0.771-0.816-1.379-1.772-1.792-2.817c-0.911-2.067-0.911-4.421,0-6.487
			c0.433-1.033,1.039-1.984,1.792-2.813c0.815-0.773,1.772-1.383,2.817-1.796c3.179-1.329,6.844-0.621,9.3,1.795
			c0.753,0.829,1.359,1.78,1.792,2.813C384.228,326.008,384.228,328.362,383.317,330.429z M383.317,262.162L383.317,262.162
			c-0.413,1.045-1.021,2.001-1.792,2.817c-3.365,3.3-8.752,3.3-12.117,0c-0.771-0.816-1.379-1.772-1.792-2.817
			c-0.911-2.067-0.911-4.421,0-6.487c0.433-1.033,1.039-1.984,1.792-2.813c0.815-0.773,1.772-1.383,2.817-1.796
			c3.179-1.329,6.844-0.621,9.3,1.795c0.753,0.829,1.359,1.78,1.792,2.813C384.228,257.741,384.228,260.096,383.317,262.162z"/>
	</g>
</g>
<g>
</g>
<g>
</g>
<g>
</g>
<g>
</g>
<g>
</g>
<g>
</g>
<g>
</g>
<g>
</g>
<g>
</g>
<g>
</g>
<g>
</g>
<g>
</g>
<g>
</g>
<g>
</g>
<g>
</g>
</svg>
